<?xml version="1.0" encoding="utf-8"?>
<!-- Generator: Adobe Illustrator 24.2.1, SVG Export Plug-In . SVG Version: 6.00 Build 0)  -->
<svg version="1.1" id="Слой_1" xmlns="http://www.w3.org/2000/svg" xmlns:xlink="http://www.w3.org/1999/xlink" x="0px" y="0px"
	 viewBox="0 0 44.4 58.7" style="enable-background:new 0 0 44.4 58.7;" xml:space="preserve">
<style type="text/css">
	.st0{fill:#214287;}
</style>
<path class="st0" d="M1.8,0l3.7,0l11.9,3.9v3.6C17,8,16.6,8.4,16.1,8.8h28.3v1.8H14.1c-0.4,0.4-0.8,0.7-1.2,1.1l4.7,26.8l-1.7,0.3
	L11.4,13c-2,1.8-4,3.6-6.1,5.4c-0.9,4-1,9.5-1,17.1c0,10.3,2.4,19,7.7,21.7v1.5H1c-0.8-26.6-0.9-28-1-46.1C0,8.7,1.1,3.6,1.8,0z"/>
</svg>
