<?xml version="1.0" encoding="utf-8"?>
<!-- Generator: Adobe Illustrator 24.2.1, SVG Export Plug-In . SVG Version: 6.00 Build 0)  -->
<svg version="1.1" id="Слой_1" xmlns="http://www.w3.org/2000/svg" xmlns:xlink="http://www.w3.org/1999/xlink" x="0px" y="0px"
	 viewBox="0 0 78.9 58.7" style="enable-background:new 0 0 78.9 58.7;" xml:space="preserve">
<style type="text/css">
	.st0{fill:#FFFFFF;stroke:#204386;stroke-miterlimit:10;}
	.st1{fill:none;stroke:#204386;stroke-miterlimit:10;}
	.st2{fill:#214287;}
</style>
<g>
	<path class="st0" d="M29.3,18.8c0.5-0.6,0.5-1.5-0.1-2L18.6,7.6c-0.6-0.5-1.5-0.5-2,0.1L0.8,25.8c-0.5,0.6-0.5,1.5,0.1,2L11.6,37
		c0.6,0.5,1.5,0.5,2-0.1L29.3,18.8L29.3,18.8z"/>
	<path class="st1" d="M23.2,15.7C23,16,22.6,16,22.3,15.8l-2.6-2.3c-0.3-0.2-0.3-0.6-0.1-0.9c0.2-0.3,0.6-0.3,0.9-0.1l2.6,2.3
		C23.4,15.1,23.4,15.5,23.2,15.7L23.2,15.7z"/>
</g>
<path class="st2" d="M49.1,0.9c1.7-1.4,4.1-1.2,5.5,0.5h0C56,3,55.8,5.5,54.2,6.9l-0.4,0.4h24.3c0.5,0,0.9,0.4,0.9,0.9v0.4
	c0,0.5-0.4,0.9-0.9,0.9H53.5l-4.1,3.5l4.2,24.7c0.1,0.5-0.2,0.9-0.7,1l-0.4,0.1c-0.5,0.1-0.9-0.2-1-0.7l-4.3-25.1L41.1,18v37.9
	L53,58.2v0.5H36.4V11.9L49.1,0.9z"/>
</svg>
