<?xml version="1.0" encoding="utf-8"?>
<!-- Generator: Adobe Illustrator 24.2.1, SVG Export Plug-In . SVG Version: 6.00 Build 0)  -->
<svg version="1.1" id="Слой_1" xmlns="http://www.w3.org/2000/svg" xmlns:xlink="http://www.w3.org/1999/xlink" x="0px" y="0px"
	 viewBox="0 0 36.9 58.9" style="enable-background:new 0 0 36.9 58.9;" xml:space="preserve">
<style type="text/css">
	.st0{fill:#214287;}
	.st1{fill:#FFFFFF;}
</style>
<rect x="9.2" y="5.5" class="st0" width="27.7" height="48.5"/>
<g>
	<path class="st1" d="M26,36.2c0-1.6-1.3-3-3-3c-1.6,0-3,1.3-3,3c0,1.1,0.6,2.1,1.5,2.6v5.3c0,0.8,0.6,1.4,1.4,1.4
		c0.8,0,1.4-0.6,1.4-1.4v-5.3C25.4,38.3,26,37.3,26,36.2"/>
</g>
<g>
	<g>
		<rect x="5.4" class="st0" width="2.4" height="58.9"/>
	</g>
</g>
<rect y="18.3" class="st0" width="4.5" height="8.6"/>
<path class="st1" d="M25.1,12.7c0,1.2-1,2.1-2.1,2.1c-1.2,0-2.1-1-2.1-2.1c0-1.2,1-2.1,2.1-2.1C24.2,10.6,25.1,11.5,25.1,12.7"/>
</svg>
