<?xml version="1.0" encoding="utf-8"?>
<!-- Generator: Adobe Illustrator 24.2.1, SVG Export Plug-In . SVG Version: 6.00 Build 0)  -->
<svg version="1.1" id="Слой_1" xmlns="http://www.w3.org/2000/svg" xmlns:xlink="http://www.w3.org/1999/xlink" x="0px" y="0px"
	 viewBox="0 0 29.4 59.7" style="enable-background:new 0 0 29.4 59.7;" xml:space="preserve">
<style type="text/css">
	.st0{fill:#214287;stroke:#FFFFFF;stroke-miterlimit:10;}
	.st1{fill:#FFFFFF;}
</style>
<path class="st0" d="M26.2,3.4c-0.2-1.3-1.3-2.3-2.6-2.4c-6.2-0.3-1.8-0.5-8.6-0.6c-7.6,0-3.2,0.2-10.1,0.6C3.5,1.1,2.4,2.2,2.3,3.5
	c-0.8,7.3-1.4,15.2-1.6,23.6C0.3,37.7,0.6,47.5,1.2,56.5c0.1,0.9,0.8,1.7,1.8,1.8c7.3,0.6,3.5,0.9,11.9,0.9c8.2,0,5-0.4,12.1-0.9
	c1-0.1,1.7-0.9,1.8-1.8c0.4-9.1,0.3-19-0.3-29.7C27.9,18.5,27.2,10.7,26.2,3.4z"/>
<path class="st0" d="M24.4,1.2c-0.2-0.1-0.5-0.1-0.8-0.2c-6.2-0.3-1.8-0.5-8.6-0.6c-7.6,0-3.2,0.2-10.1,0.6c-0.1,0-0.2,0-0.3,0
	L2.7,58.3c0.1,0,0.1,0,0.2,0c7.3,0.6,3.5,0.9,11.9,0.9c7.9,0,4.5-0.3,11.4-0.9L24.4,1.2z"/>
<path class="st0" d="M20.1,48.2h-4.9c0,0.2-0.2,0.7-0.7,1.1c-0.4,0.2-0.7,0.3-0.9,0.3c-1.4,0-2.8,0-4.2,0c-1.1,0-2.1-0.9-2-1.9
	l0.4-9.9c0-1,0.8-1.8,1.9-1.8h9.8c1.1,0,2.1,0.6,2.1,1.6l0.6,8.6C22.2,47.3,21.2,48.2,20.1,48.2z"/>
<rect x="7.3" y="6.5" class="st1" width="14.3" height="1"/>
<path class="st1" d="M12.2,42.8H10c-0.6,0-1.1,0.5-1.1,1.1v2.9c0,0.6,0.5,1.1,1.1,1.1h2.2c0.6,0,1.1-0.5,1.1-1.1v-2.9
	C13.3,43.3,12.8,42.8,12.2,42.8z"/>
</svg>
