<?xml version="1.0" encoding="utf-8"?>
<!-- Generator: Adobe Illustrator 24.2.1, SVG Export Plug-In . SVG Version: 6.00 Build 0)  -->
<svg version="1.1" id="Слой_1" xmlns="http://www.w3.org/2000/svg" xmlns:xlink="http://www.w3.org/1999/xlink" x="0px" y="0px"
	 viewBox="0 0 37.6 58.3" style="enable-background:new 0 0 37.6 58.3;" xml:space="preserve">
<style type="text/css">
	.st0{fill:#214287;}
	.st1{fill:#FFFFFF;}
</style>
<path class="st0" d="M35.1,0c1.4,0,2.5,1.2,2.5,2.6v53.2c0,1.4-1.1,2.6-2.5,2.6H2.5c-1.4,0-2.5-1.2-2.5-2.6V2.6C0,1.2,1.1,0,2.5,0
	H35.1"/>
<g>
	<rect x="2.5" y="5.6" class="st1" width="32.6" height="43.2"/>
</g>
<g>
	<path class="st0" d="M6.4,41c0-0.7,0-1.3,0-1.9c0-0.8,0.3-1.1,1.1-1.3c1.6-0.4,3.2-0.8,4.8-1.2c0.6-0.2,1.3-0.4,1.9-0.8
		c1.1-0.6,1.4-1.6,0.9-2.8c-0.4-0.8-0.8-1.6-1.1-2.3c-0.7-1.7-1.3-3.4-1.3-5.2c-0.1-2.8,1-5.3,3.5-6.3c2.6-1.1,5.7-0.4,7.4,1.5
		c1.2,1.5,1.5,3.2,1.4,5c-0.2,2.3-1,4.4-2,6.4c0,0.1-0.1,0.2-0.1,0.2c-1.1,2-0.7,3.1,1.5,3.9c1.7,0.6,3.4,0.9,5.1,1.3
		c1.6,0.4,1.7,0.5,1.7,2.2c0,0.4,0,0.8,0,1.2C22.9,41,14.7,41,6.4,41z"/>
	<path class="st0" d="M7.5,15.7c1.2,0,3.5,0,4.7,0c0,0.4,0,0.8,0,1.3c-0.7,0-2.6,0-3.4,0c0,0.9,0,2.9,0,3.8c-0.5,0-0.8,0-1.3,0
		C7.5,19.5,7.5,17.1,7.5,15.7z"/>
	<path class="st0" d="M30,20.8c-0.4,0-0.8,0-1.3,0c0-0.9,0-2.8,0-3.8c-0.8,0-2.6,0-3.4,0c0-0.5,0-0.9,0-1.3c1.2,0,3.5,0,4.7,0
		C30,17.1,30,19.5,30,20.8z"/>
	<path class="st0" d="M7.5,34.1c0-1.3,0-3.7,0-5c0.4,0,0.8,0,1.3,0c0,0.8,0,2.8,0,3.7c0.8,0,2.7,0,3.4,0c0,0.5,0,0.9,0,1.3
		C11,34.1,8.7,34.1,7.5,34.1z"/>
	<path class="st0" d="M30,34.1c-1.2,0-3.5,0-4.7,0c0-0.4,0-0.8,0-1.3c0.7,0,2.6,0,3.4,0c0-0.9,0-2.8,0-3.7c0.5,0,0.9,0,1.3,0
		C30,30.4,30,32.7,30,34.1z"/>
</g>
</svg>
