<?xml version="1.0" encoding="UTF-8" standalone="no"?>
<!-- Generator: Adobe Illustrator 23.0.3, SVG Export Plug-In . SVG Version: 6.00 Build 0)  -->

<svg
   xmlns:dc="http://purl.org/dc/elements/1.1/"
   xmlns:cc="http://creativecommons.org/ns#"
   xmlns:rdf="http://www.w3.org/1999/02/22-rdf-syntax-ns#"
   xmlns:svg="http://www.w3.org/2000/svg"
   xmlns="http://www.w3.org/2000/svg"
   xmlns:sodipodi="http://sodipodi.sourceforge.net/DTD/sodipodi-0.dtd"
   xmlns:inkscape="http://www.inkscape.org/namespaces/inkscape"
   version="1.1"
   id="Слой_1"
   x="0px"
   y="0px"
   viewBox="0 0 25 17.5"
   style="enable-background:new 0 0 25 17.5;"
   xml:space="preserve"
   inkscape:version="0.48.2 r9819"
   width="100%"
   height="100%"
   sodipodi:docname="avto.svg"><metadata
   id="metadata3053"><rdf:RDF><cc:Work
       rdf:about=""><dc:format>image/svg+xml</dc:format><dc:type
         rdf:resource="http://purl.org/dc/dcmitype/StillImage" /><dc:title></dc:title></cc:Work></rdf:RDF></metadata><defs
   id="defs3051" /><sodipodi:namedview
   pagecolor="#ffffff"
   bordercolor="#666666"
   borderopacity="1"
   objecttolerance="10"
   gridtolerance="10"
   guidetolerance="10"
   inkscape:pageopacity="0"
   inkscape:pageshadow="2"
   inkscape:window-width="1920"
   inkscape:window-height="1137"
   id="namedview3049"
   showgrid="false"
   inkscape:zoom="26.228571"
   inkscape:cx="7.8415569"
   inkscape:cy="13.826073"
   inkscape:window-x="-8"
   inkscape:window-y="-8"
   inkscape:window-maximized="1"
   inkscape:current-layer="Слой_1" />
<style
   type="text/css"
   id="style3045">
	.st0{fill:#1F4387;}
</style>
<path
   class="st0"
   d="M24.8,9.2L25,8.7l-5.2-6.4l-0.2-0.1h-2.4V0H0v8.6v0.6v5.2h3c0,0,0,0,0,0c0,1.7,1.4,3,3,3c1.7,0,3-1.3,3-3  c0,0,0,0,0,0h7.3c0,0,0,0,0,0c0,1.7,1.4,3,3,3c1.7,0,3-1.3,3-3c0,0,0,0,0,0h2.4V9.2z M19.4,2.8l4.7,5.8h-7V2.8H19.4z M0.6,0.6h16  v1.9v6.1h-16V0.6z M8.4,14.5c0,1.3-1.1,2.4-2.4,2.4c-1.3,0-2.4-1.1-2.4-2.4c0,0,0-0.1,0-0.1l0-0.2c0.1-1,1-1.9,2-2.1c0,0,0,0,0,0  c0.1,0,0.1,0,0.2,0c0.1,0,0.2,0,0.2,0c0.1,0,0.2,0,0.2,0c0,0,0.1,0,0.1,0c0,0,0.1,0,0.1,0c0.1,0,0.1,0,0.2,0c0,0,0,0,0,0  c0.9,0.3,1.6,1,1.7,2L8.4,14.5L8.4,14.5C8.4,14.4,8.4,14.5,8.4,14.5z M21.8,14.5c0,1.3-1.1,2.4-2.4,2.4c-1.3,0-2.4-1.1-2.4-2.4  c0,0,0,0,0,0h0l0-0.3c0.1-1,0.9-1.9,1.9-2.1c0,0,0,0,0,0c0.1,0,0.1,0,0.2,0c0.1,0,0.2,0,0.2,0c0.1,0,0.2,0,0.2,0c0,0,0.1,0,0.1,0  c0,0,0.1,0,0.1,0c0.1,0,0.1,0,0.2,0c0,0,0,0,0,0c0.9,0.3,1.6,1,1.7,2L21.8,14.5L21.8,14.5C21.8,14.4,21.8,14.5,21.8,14.5z   M24.2,13.8h-1.8c-0.3-1.4-1.5-2.4-3-2.4c-1.5,0-2.7,1-3,2.4H9c-0.3-1.4-1.5-2.4-3-2.4c-1.5,0-2.7,1-3,2.4H0.6V9.2h16.2h0.3h7V13.8z  "
   id="path3047" />
</svg>