<?xml version="1.0" encoding="utf-8"?>
<!-- Generator: Adobe Illustrator 23.0.3, SVG Export Plug-In . SVG Version: 6.00 Build 0)  -->
<svg version="1.1" id="Слой_1" xmlns="http://www.w3.org/2000/svg" xmlns:xlink="http://www.w3.org/1999/xlink" x="0px" y="0px"
	 viewBox="0 0 25 34.9" style="enable-background:new 0 0 25 34.9;" xml:space="preserve">
<style type="text/css">
	.st0{fill:#214387;}
</style>
<g>
	<path class="st0" d="M12.4,15.4c3.2,0,5.8-2.6,5.8-5.8c0-3.2-2.6-5.9-5.8-5.9c-3.2,0-5.8,2.6-5.8,5.8C6.5,12.8,9.2,15.4,12.4,15.4z
		 M12.4,4.4c2.9,0,5.2,2.4,5.2,5.2c0,2.8-2.4,5.2-5.2,5.2c-2.8,0-5.2-2.4-5.2-5.2C7.2,6.8,9.5,4.4,12.4,4.4z"/>
	<path class="st0" d="M0,28.2c0,3.7,5.6,6.7,12.5,6.7s12.5-3,12.5-6.7c0-2.1-1.9-4.1-5.2-5.4l-0.2,0.6c3,1.2,4.8,3,4.8,4.8
		c0,3.4-5.4,6.1-11.9,6.1S0.6,31.6,0.6,28.2c0-1.9,1.8-3.7,4.8-4.8l-0.2-0.6C1.9,24.1,0,26.1,0,28.2z"/>
	<path class="st0" d="M12.3,30.7c0,0.1,0.1,0.1,0.3,0.1c0.1,0,0.2-0.1,0.3-0.2l9.5-17.2c0,0,0-0.1,0-0.2c0.3-0.9,0.5-2.3,0.5-3.2
		C22.8,4.6,18.2,0,12.5,0S2.2,4.6,2.2,10.2c0,1.2,0.2,2.3,0.6,3.4l0.1,0.1L12.3,30.7z M12.5,0.6c5.4,0,9.7,4.3,9.7,9.6
		c0,0.9-0.2,2.3-0.5,3.1v0.1L12.6,30L3.4,13.2c0,0,0-0.1-0.1-0.1c-0.3-1-0.5-2-0.5-3C2.8,4.9,7.1,0.6,12.5,0.6z"/>
</g>
</svg>
