<?xml version="1.0" encoding="utf-8"?>
<!-- Generator: Adobe Illustrator 21.0.2, SVG Export Plug-In . SVG Version: 6.00 Build 0)  -->
<svg version="1.1" xmlns="http://www.w3.org/2000/svg" xmlns:xlink="http://www.w3.org/1999/xlink" x="0px" y="0px"
	 viewBox="0 0 19.1 19.1" style="enable-background:new 0 0 19.1 19.1;" xml:space="preserve">
<g id="Слой_1">
	<g>
		<g>
			<g>
				<defs>
					<path id="SVGID_1_" d="M6.4,9.5c0-1.8,1.4-3.2,3.2-3.2s3.2,1.4,3.2,3.2s-1.4,3.2-3.2,3.2S6.4,11.3,6.4,9.5 M4.6,9.5
						c0,2.7,2.2,4.9,4.9,4.9s4.9-2.2,4.9-4.9s-2.2-4.9-4.9-4.9S4.6,6.8,4.6,9.5 M13.5,4.5c0,0.6,0.5,1.1,1.1,1.1s1.1-0.5,1.1-1.1
						s-0.5-1.1-1.1-1.1S13.5,3.8,13.5,4.5 M5.7,17.3c-0.9,0-1.4-0.2-1.8-0.3c-0.4-0.2-0.8-0.4-1.1-0.7c-0.3-0.3-0.5-0.7-0.7-1.1
						c-0.1-0.3-0.3-0.8-0.3-1.8s-0.1-1.3-0.1-3.9s0-2.9,0.1-3.9c0-0.9,0.2-1.4,0.3-1.8C2.3,3.4,2.5,3,2.8,2.7S3.5,2.2,3.9,2
						c0.4,0,0.9-0.2,1.8-0.2c1,0,1.3-0.1,3.9-0.1c2.5,0,2.9,0,3.9,0.1c0.9,0,1.4,0.2,1.8,0.3c0.4,0.2,0.8,0.4,1.1,0.7
						s0.5,0.7,0.7,1.1c0.1,0.3,0.3,0.8,0.3,1.8s0.1,1.3,0.1,3.9c0,2.5,0,2.9-0.1,3.9c0,0.9-0.2,1.4-0.3,1.8
						c-0.2,0.4-0.4,0.8-0.7,1.1c-0.3,0.3-0.7,0.5-1.1,0.7c-0.3,0.1-0.8,0.3-1.8,0.3s-1.3,0.1-3.9,0.1C7,17.4,6.7,17.4,5.7,17.3
						 M5.6,0.1c-1,0-1.7,0.2-2.3,0.4S2.1,1.1,1.6,1.6S0.7,2.7,0.5,3.3S0.1,4.6,0.1,5.6C0,6.6,0,7,0,9.5s0,2.9,0.1,3.9
						c0,1,0.2,1.7,0.4,2.3c0.2,0.6,0.6,1.2,1.1,1.7s1.1,0.9,1.7,1.1C3.9,18.8,4.6,19,5.6,19s1.3,0.1,3.9,0.1s2.9,0,3.9-0.1
						c1,0,1.7-0.2,2.3-0.4c0.6-0.2,1.2-0.6,1.7-1.1s0.9-1.1,1.1-1.7c0.2-0.6,0.4-1.3,0.4-2.3S19,12.2,19,9.6s0-2.9-0.1-3.9
						c0-1-0.2-1.7-0.4-2.3c-0.2-0.6-0.6-1.2-1.1-1.7s-1.1-0.9-1.7-1.1c-0.6-0.2-1.3-0.4-2.3-0.4C12.5,0,12.1,0,9.5,0
						C7,0,6.6,0,5.6,0.1"/>
				</defs>
				<radialGradient id="SVGID_2_" cx="2.4167" cy="17.14" r="26.2235" gradientUnits="userSpaceOnUse">
					<stop  offset="0" style="stop-color:#FEC053"/>
					<stop  offset="0.3273" style="stop-color:#F2203E"/>
					<stop  offset="0.6485" style="stop-color:#B729A8"/>
					<stop  offset="1" style="stop-color:#5342D6"/>
				</radialGradient>
				<use xlink:href="#SVGID_1_"  style="overflow:visible;fill:url(#SVGID_2_);"/>
				<clipPath id="SVGID_3_">
					<use xlink:href="#SVGID_1_"  style="overflow:visible;"/>
				</clipPath>
			</g>
		</g>
	</g>
</g>
<g id="Слой_2">
</g>
</svg>
