<?xml version="1.0" encoding="UTF-8" standalone="no"?>
<!-- Generator: Adobe Illustrator 23.0.3, SVG Export Plug-In . SVG Version: 6.00 Build 0)  -->

<svg
   xmlns:dc="http://purl.org/dc/elements/1.1/"
   xmlns:cc="http://creativecommons.org/ns#"
   xmlns:rdf="http://www.w3.org/1999/02/22-rdf-syntax-ns#"
   xmlns:svg="http://www.w3.org/2000/svg"
   xmlns="http://www.w3.org/2000/svg"
   xmlns:sodipodi="http://sodipodi.sourceforge.net/DTD/sodipodi-0.dtd"
   xmlns:inkscape="http://www.inkscape.org/namespaces/inkscape"
   version="1.1"
   id="Слой_1"
   x="0px"
   y="0px"
   viewBox="0 0 25 17.5"
   style="enable-background:new 0 0 25 17.5;"
   xml:space="preserve"
   inkscape:version="0.48.2 r9819"
   width="100%"
   height="100%"
   sodipodi:docname="konvert.svg"><metadata
   id="metadata3954"><rdf:RDF><cc:Work
       rdf:about=""><dc:format>image/svg+xml</dc:format><dc:type
         rdf:resource="http://purl.org/dc/dcmitype/StillImage" /><dc:title></dc:title></cc:Work></rdf:RDF></metadata><defs
   id="defs3952" /><sodipodi:namedview
   pagecolor="#ffffff"
   bordercolor="#666666"
   borderopacity="1"
   objecttolerance="10"
   gridtolerance="10"
   guidetolerance="10"
   inkscape:pageopacity="0"
   inkscape:pageshadow="2"
   inkscape:window-width="1920"
   inkscape:window-height="1137"
   id="namedview3950"
   showgrid="false"
   inkscape:zoom="13.485714"
   inkscape:cx="12.5"
   inkscape:cy="8.75"
   inkscape:window-x="-8"
   inkscape:window-y="-8"
   inkscape:window-maximized="1"
   inkscape:current-layer="Слой_1" />
<style
   type="text/css"
   id="style3946">
	.st0{fill:#214288;}
</style>
<path
   class="st0"
   d="M23.8,0H1.2C0.6,0,0,0.6,0,1.2v15c0,0.7,0.6,1.2,1.2,1.2h22.5c0.7,0,1.2-0.6,1.2-1.3v-15C25,0.6,24.4,0,23.8,0z   M24.4,1.2v15c0,0.1-0.1,0.3-0.1,0.4l-8.3-8.3L24.4,1.2C24.4,1.2,24.4,1.2,24.4,1.2z M24,0.7l-11.5,9.7L1.3,0.6h22.5  C23.9,0.6,23.9,0.6,24,0.7z M0.6,1.2c0-0.1,0-0.2,0.1-0.3L9,8.1l-8.3,8.3c0,0,0-0.1,0-0.2V1.2z M1,16.8l8.4-8.3l3.1,2.7l2.9-2.5  l8.2,8.1H1.2C1.2,16.9,1.1,16.8,1,16.8z"
   id="path3948" />
</svg>