<?xml version="1.0" encoding="utf-8"?>
<!-- Generator: Adobe Illustrator 21.0.2, SVG Export Plug-In . SVG Version: 6.00 Build 0)  -->
<svg version="1.1" id="Слой_1" xmlns="http://www.w3.org/2000/svg" xmlns:xlink="http://www.w3.org/1999/xlink" x="0px" y="0px"
	 viewBox="0 0 16 16" style="enable-background:new 0 0 16 16;" xml:space="preserve">
<style type="text/css">
	.st0{fill:#204387;}
	.st1{fill:#FFFFFF;}
</style>
<path class="st0" d="M7.5,0v16H16V0H7.5z M11.8,4.9c-0.6,0-1.1-0.5-1.1-1.1c0-0.6,0.5-1.1,1.1-1.1c0.6,0,1.1,0.5,1.1,1.1
	C12.9,4.4,12.4,4.9,11.8,4.9z"/>
<g>
	<path class="st1" d="M5.5,15.2l-4.6-1.7c-0.5-0.2-0.8-0.8-0.6-1.3l3.1-8.6C3.6,3.1,4.2,2.9,4.7,3l4.6,1.7C9.8,4.9,10.1,5.5,9.9,6
		l-3.1,8.6C6.6,15.1,6,15.4,5.5,15.2z"/>
	<path class="st0" d="M5.4,15.4l-4.6-1.7c-0.6-0.2-1-1-0.8-1.6l3.1-8.6c0.2-0.6,1-1,1.6-0.8l4.6,1.7c0.6,0.2,1,1,0.8,1.6L7,14.6
		C6.8,15.3,6.1,15.6,5.4,15.4z M4.6,3.3c-0.4-0.1-0.8,0.1-1,0.5l-3.1,8.6c-0.1,0.4,0.1,0.8,0.5,1l4.6,1.7c0.4,0.1,0.8-0.1,1-0.5
		l3.1-8.6c0.1-0.4-0.1-0.8-0.5-1L4.6,3.3z"/>
</g>
</svg>
