<svg xmlns="http://www.w3.org/2000/svg" viewBox="0 0 159.506 168.951" enable-background="new 0 0 159.506 168.951"><defs><linearGradient id="SVGID_1_" gradientUnits="userSpaceOnUse" y1="170.37" x2="0" y2="-1.419"><stop stop-color="#12397f"/><stop offset="1" stop-color="#3f8ded"/></linearGradient></defs><path fill-rule="evenodd" fill="url(#SVGID_1_)" d="m79.41 102.23c16.907-1.017 31.14-14.702 36.675-33.581 2.987-1.255 5.79-6.01 6.784-12.01 1.219-7.363-.747-13.827-4.394-14.485-.587-23.508-5.128-41.468-39.06-42.15-33.936.681-38.477 18.641-39.06 42.15-3.646.659-5.611 7.122-4.393 14.485.993 6 3.797 10.756 6.783 12.01 5.537 18.88 19.768 32.565 36.675 33.582m.346 66.72c-29.797 0-79.75-4.5-79.75-24 6.088-46.12 37.01-41.38 48.5-42.35 6.455 12.488 14.15 21.398 22.555 28.29.46-4.688 1.5-9.452 2.895-14.381-2.156-1.958-3.091-4.567-2.813-7.825 2.872-.1 5.745-.2 8.617-.3 2.873.1 5.745.2 8.618.3.278 3.258-.656 5.868-2.813 7.825 1.395 4.93 2.435 9.694 2.895 14.381 8.401-6.888 16.1-15.797 22.555-28.29 11.492.966 42.41-3.769 48.5 42.35 0 19.5-49.955 24-79.75 24m-.346-133.26c6.69-.027 16.302-4.32 24.459 3.311.635-2.208-2.096-5.243-.273-4.248 4.457 2.432 6.461 6.917 7.263 13.308.191-.04.384-.062.578-.062 2.692 0 4.581 3.994 4.219 8.921-.354 4.801-2.714 8.715-5.325 8.913-3.679 15.763-17.02 29.24-30.92 29.404-13.906-.165-27.24-13.641-30.92-29.404-2.612-.197-4.973-4.111-5.326-8.913-.362-4.927 1.526-8.921 4.219-8.921.194 0 .388.021.578.062.803-6.391 2.805-10.875 7.263-13.308 4.267-2.328 12.506.891 24.18.937"/></svg>