<?xml version="1.0" encoding="UTF-8" standalone="no"?>
<!-- Generator: Adobe Illustrator 23.0.3, SVG Export Plug-In . SVG Version: 6.00 Build 0)  -->

<svg
   xmlns:dc="http://purl.org/dc/elements/1.1/"
   xmlns:cc="http://creativecommons.org/ns#"
   xmlns:rdf="http://www.w3.org/1999/02/22-rdf-syntax-ns#"
   xmlns:svg="http://www.w3.org/2000/svg"
   xmlns="http://www.w3.org/2000/svg"
   xmlns:sodipodi="http://sodipodi.sourceforge.net/DTD/sodipodi-0.dtd"
   xmlns:inkscape="http://www.inkscape.org/namespaces/inkscape"
   version="1.1"
   id="Слой_1"
   x="0px"
   y="0px"
   viewBox="0 0 25 25.7"
   style="enable-background:new 0 0 25 25.7;"
   xml:space="preserve"
   inkscape:version="0.48.2 r9819"
   width="100%"
   height="100%"
   sodipodi:docname="telefon.svg"><metadata
   id="metadata3075"><rdf:RDF><cc:Work
       rdf:about=""><dc:format>image/svg+xml</dc:format><dc:type
         rdf:resource="http://purl.org/dc/dcmitype/StillImage" /><dc:title></dc:title></cc:Work></rdf:RDF></metadata><defs
   id="defs3073" /><sodipodi:namedview
   pagecolor="#ffffff"
   bordercolor="#666666"
   borderopacity="1"
   objecttolerance="10"
   gridtolerance="10"
   guidetolerance="10"
   inkscape:pageopacity="0"
   inkscape:pageshadow="2"
   inkscape:window-width="1920"
   inkscape:window-height="1137"
   id="namedview3071"
   showgrid="false"
   inkscape:zoom="25.973105"
   inkscape:cx="7.8898263"
   inkscape:cy="10.198688"
   inkscape:window-x="-8"
   inkscape:window-y="-8"
   inkscape:window-maximized="1"
   inkscape:current-layer="Слой_1" />
<style
   type="text/css"
   id="style3067">
	.st0{fill:#214288;}
</style>
<path
   class="st0"
   d="M0.5,3.2c-2,5.8,2.6,12.2,4.8,14.7C5.3,17.9,5.4,18,5.4,18c2.8,2.9,8.2,7.7,13.4,7.7c0.7,0,1.3-0.1,1.9-0.3  c0.7-0.2,3.6-1.2,4.2-2.4c0.1-0.3,0.1-0.5,0-0.8c-0.8-1.8-4.2-5.2-5.9-5.6c-0.3-0.1-0.5,0.1-1.2,0.7c-1.6,1.5-2.8,2.2-3.4,1.8  l-0.1,0c-0.4-0.1-1.9-0.8-4.5-3.7c-2.8-3.1-3.1-4.1-3.2-4.3l0-0.1C6.6,10.3,8.2,7.8,9,6.7c0,0,0.1-0.1,0-0.3C9,5.9,5.9,1.1,4.1,0.1  L4,0L3.9,0C1.5,0.6,0.5,3.2,0.5,3.2z M3.8,0.7l0.1,0L4,0.7c1.5,1.1,3.9,4.7,4.4,5.7l0.1,0.1L8.4,6.6c-2.1,3-2.4,4.2-2.2,4.7  c0.1,0.3,0.5,1.4,3.3,4.6c2.6,2.9,4.2,3.6,4.7,3.8c1.2,0.6,3-1,4-1.9c0.2-0.2,0.5-0.4,0.6-0.6l0.1-0.1l0.1,0  c1.5,0.6,4.5,3.6,5.3,5.2l0,0.1c0,0,0,0.1-0.1,0.2c-0.4,0.8-2.7,1.7-3.8,2.1c-0.5,0.1-1.1,0.2-1.7,0.2c-5.4,0-11.3-5.7-13.1-7.5  l-0.1-0.1C4.1,15.6-0.9,9,1,3.4l0.1-0.2C1.8,1.8,2.7,1,3.8,0.7z"
   id="path3069" />
</svg>