<?xml version="1.0" encoding="UTF-8" standalone="no"?>
<!-- Created with Inkscape (http://www.inkscape.org/) -->

<svg
   xmlns:dc="http://purl.org/dc/elements/1.1/"
   xmlns:cc="http://creativecommons.org/ns#"
   xmlns:rdf="http://www.w3.org/1999/02/22-rdf-syntax-ns#"
   xmlns:svg="http://www.w3.org/2000/svg"
   xmlns="http://www.w3.org/2000/svg"
   xmlns:sodipodi="http://sodipodi.sourceforge.net/DTD/sodipodi-0.dtd"
   xmlns:inkscape="http://www.inkscape.org/namespaces/inkscape"
   id="svg2"
   version="1.1"
   inkscape:version="0.48.2 r9819"
   width="31.25"
   height="43.625"
   xml:space="preserve"
   sodipodi:docname="вибер-01.ai"><metadata
     id="metadata8"><rdf:RDF><cc:Work
         rdf:about=""><dc:format>image/svg+xml</dc:format><dc:type
           rdf:resource="http://purl.org/dc/dcmitype/StillImage" /><dc:title></dc:title></cc:Work></rdf:RDF></metadata><defs
     id="defs6"><clipPath
       clipPathUnits="userSpaceOnUse"
       id="clipPath16"><path
         d="m 0,34.9 25,0 L 25,0 0,0 0,34.9 z"
         id="path18" /></clipPath></defs><sodipodi:namedview
     pagecolor="#ffffff"
     bordercolor="#666666"
     borderopacity="1"
     objecttolerance="10"
     gridtolerance="10"
     guidetolerance="10"
     inkscape:pageopacity="0"
     inkscape:pageshadow="2"
     inkscape:window-width="1920"
     inkscape:window-height="1137"
     id="namedview4"
     showgrid="false"
     inkscape:zoom="21.638968"
     inkscape:cx="24.967576"
     inkscape:cy="22.11856"
     inkscape:window-x="-8"
     inkscape:window-y="-8"
     inkscape:window-maximized="1"
     inkscape:current-layer="g10" /><g
     id="g10"
     inkscape:groupmode="layer"
     inkscape:label="вибер-01"
     transform="matrix(1.25,0,0,-1.25,0,43.625)"><g
       id="g12"><g
         id="g14"
         clip-path="url(#clipPath16)"><g
           id="g20"
           transform="translate(12.6895,30.2182)"><path
             d="m 0,0 c -0.071,0 -0.143,0 -0.214,-0.001 -2.616,-0.029 -5.168,-0.576 -7.584,-1.626 -1.118,-0.486 -2.038,-1.371 -2.592,-2.492 -1.074,-2.175 -1.642,-4.492 -1.687,-6.886 -0.061,-3.241 0.884,-5.865 1.688,-7.495 0.56,-1.137 1.524,-2.048 2.715,-2.565 0.345,-0.151 0.729,-0.3 1.133,-0.447 l 0.154,-0.055 0.911,-3.938 3.192,2.98 0.138,-0.016 c 0.694,-0.079 1.342,-0.12 1.979,-0.127 2.619,10e-4 5.19,0.487 7.63,1.514 1.317,0.554 2.338,1.586 2.871,2.903 0.976,2.404 1.432,4.921 1.356,7.482 -0.063,2.158 -0.505,4.278 -1.314,6.301 -0.551,1.377 -1.595,2.44 -2.941,2.993 C 5.05,-0.496 2.549,0 0,0 m -5.826,-26.653 -1.072,4.633 c -0.361,0.133 -0.703,0.268 -1.015,0.404 -1.321,0.574 -2.391,1.587 -3.014,2.85 -0.833,1.691 -1.813,4.411 -1.75,7.773 0.047,2.482 0.635,4.884 1.749,7.14 0.616,1.248 1.643,2.234 2.89,2.776 2.491,1.082 5.121,1.646 7.817,1.676 2.716,0.026 5.357,-0.482 7.884,-1.519 1.497,-0.616 2.659,-1.796 3.27,-3.325 0.836,-2.089 1.292,-4.278 1.357,-6.506 0.078,-2.645 -0.394,-5.244 -1.399,-7.725 -0.595,-1.466 -1.73,-2.614 -3.196,-3.231 -2.514,-1.059 -5.168,-1.604 -7.867,-1.561 -0.617,0.006 -1.241,0.044 -1.905,0.116 l -3.749,-3.501 z"
             style="fill:#214387;fill-opacity:1;fill-rule:nonzero;stroke:none"
             id="path22" /></g><g
           id="g24"
           transform="translate(4.873,24.6626)"><path
             d="m 0,0 c -0.233,-0.292 -0.297,-0.672 -0.171,-1.016 0.859,-2.352 2.451,-5.733 5.159,-8.477 1.456,-1.476 2.988,-2.52 3.28,-2.714 1.107,-0.735 2.295,-1.363 3.528,-1.868 0.292,-0.118 0.599,-0.113 0.867,0.016 0.461,0.225 0.876,0.521 1.233,0.88 0.378,0.379 0.684,0.821 0.91,1.312 0.176,0.386 0.103,0.834 -0.187,1.141 -0.329,0.351 -0.684,0.68 -1.056,0.98 -0.551,0.442 -1.152,0.831 -1.788,1.156 -0.321,0.163 -0.697,0.153 -1.004,-0.027 -0.142,-0.083 -0.348,-0.235 -0.415,-0.318 -0.203,-0.251 -0.324,-0.396 -0.491,-0.559 -0.392,-0.382 -0.96,-0.528 -1.526,-0.391 -0.815,0.2 -1.838,0.802 -2.736,1.609 -1.161,1.043 -1.673,2.297 -1.897,3.166 -0.164,0.634 0.087,1.299 0.671,1.779 l 0.322,0.259 c 0.163,0.137 0.244,0.201 0.298,0.269 0.042,0.051 0.138,0.182 0.169,0.34 0.037,0.188 -0.031,0.358 -0.098,0.502 -0.443,0.95 -1.101,1.813 -1.174,1.908 L 3.891,-0.049 C 3.548,0.391 3.166,0.807 2.754,1.187 2.431,1.483 1.957,1.542 1.574,1.33 1.291,1.173 1.022,0.99 0.777,0.788 0.491,0.553 0.23,0.288 0,0 m 12.218,-14.759 c -0.219,0 -0.44,0.043 -0.649,0.129 -1.27,0.519 -2.493,1.166 -3.633,1.923 -0.301,0.2 -1.878,1.274 -3.375,2.792 -2.784,2.822 -4.416,6.285 -5.296,8.693 -0.198,0.543 -0.098,1.139 0.266,1.596 C -0.213,0.695 0.078,0.99 0.396,1.251 0.669,1.477 0.968,1.68 1.283,1.854 1.892,2.192 2.647,2.101 3.161,1.627 3.597,1.225 4.002,0.784 4.365,0.318 4.495,0.15 5.152,-0.72 5.612,-1.708 5.678,-1.851 5.833,-2.184 5.754,-2.579 5.7,-2.858 5.549,-3.075 5.464,-3.179 5.395,-3.267 5.294,-3.355 5.097,-3.521 L 4.759,-3.793 C 4.567,-3.952 4.137,-4.381 4.287,-4.959 4.491,-5.748 4.954,-6.886 6.004,-7.83 6.82,-8.563 7.77,-9.127 8.482,-9.303 c 0.363,-0.091 0.722,0.001 0.964,0.239 0.151,0.147 0.26,0.279 0.444,0.506 0.178,0.223 0.561,0.449 0.577,0.459 0.485,0.284 1.077,0.301 1.581,0.043 0.672,-0.343 1.308,-0.755 1.89,-1.223 0.394,-0.317 0.77,-0.664 1.119,-1.035 0.458,-0.487 0.573,-1.195 0.294,-1.803 -0.255,-0.557 -0.602,-1.056 -1.029,-1.486 -0.405,-0.406 -0.876,-0.742 -1.397,-0.995 -0.221,-0.107 -0.463,-0.161 -0.707,-0.161"
             style="fill:#214387;fill-opacity:1;fill-rule:nonzero;stroke:none"
             id="path26" /></g><g
           id="g28"
           transform="translate(19.6055,18.6162)"><path
             d="m 0,0 c -0.166,0 -0.3,0.134 -0.3,0.3 0,3.922 -3.19,7.112 -7.113,7.112 -0.165,0 -0.299,0.134 -0.299,0.3 0,0.165 0.134,0.3 0.299,0.3 C -3.16,8.012 0.3,4.552 0.3,0.3 0.3,0.134 0.166,0 0,0"
             style="fill:#214387;fill-opacity:1;fill-rule:nonzero;stroke:none"
             id="path30" /></g><g
           id="g32"
           transform="translate(17.666,19.3315)"><path
             d="m 0,0 c -0.166,0 -0.3,0.134 -0.3,0.3 0,2.338 -1.902,4.24 -4.24,4.24 -0.166,0 -0.3,0.134 -0.3,0.3 0,0.165 0.134,0.3 0.3,0.3 C -1.871,5.14 0.3,2.969 0.3,0.3 0.3,0.134 0.166,0 0,0"
             style="fill:#214387;fill-opacity:1;fill-rule:nonzero;stroke:none"
             id="path34" /></g><g
           id="g36"
           transform="translate(15.7275,19.5708)"><path
             d="m 0,0 c -0.166,0 -0.3,0.134 -0.3,0.3 0,1.164 -0.902,2.112 -2.012,2.112 -0.166,0 -0.299,0.134 -0.299,0.3 0,0.165 0.133,0.3 0.299,0.3 C -0.871,3.012 0.3,1.795 0.3,0.3 0.3,0.134 0.166,0 0,0"
             style="fill:#214387;fill-opacity:1;fill-rule:nonzero;stroke:none"
             id="path38" /></g></g></g></g></svg>