<?xml version="1.0" encoding="utf-8"?>
<!-- Generator: Adobe Illustrator 23.0.3, SVG Export Plug-In . SVG Version: 6.00 Build 0)  -->
<svg version="1.1" id="Layer_1" xmlns="http://www.w3.org/2000/svg" xmlns:xlink="http://www.w3.org/1999/xlink" x="0px" y="0px"
	 viewBox="0 0 287.1 77.9" style="enable-background:new 0 0 287.1 77.9;" xml:space="preserve">
<style type="text/css">
	.st0{fill:#ED1C24;}
	.st1{fill:#F3D410;}
</style>
<g>
	<path class="st0" d="M17.6,13.6h-5.8c-5.7,0-10.5,4.3-10.5,12.7c0,5,2.3,8.7,6.5,10.5l-7.7,14c-0.3,0.5,0,0.8,0.4,0.8h3.6
		c0.3,0,0.5-0.1,0.6-0.4l7-13.7h2.5v13.7c0,0.2,0.2,0.4,0.4,0.4h3.1c0.3,0,0.4-0.2,0.4-0.4V14.1C18.1,13.7,17.9,13.6,17.6,13.6z
		 M14.2,34.3h-2.1c-3.3,0-6.6-2.4-6.6-8.5c0-6.3,3-8.9,6.1-8.9h2.6V34.3z"/>
	<path d="M36.6,26.2h-3.1c-0.3,0-0.4,0.2-0.4,0.4v9.7h-5.8v-9.7c0-0.3-0.1-0.4-0.4-0.4h-3.1c-0.3,0-0.4,0.2-0.4,0.4v24.6
		c0,0.3,0.1,0.4,0.4,0.4h3.2c0.2,0,0.4-0.2,0.4-0.4V39.4H33v11.8c0,0.3,0.2,0.4,0.4,0.4h3.1c0.3,0,0.4-0.2,0.4-0.4V26.5
		C36.9,26.3,36.8,26.2,36.6,26.2z"/>
	<path d="M108.1,49.9l-0.4-1.7c0-0.2-0.1-0.2-0.3-0.2c-0.3,0-1.6,0.6-3.6,0.6c-3.8,0-5.7-3.7-5.7-9.6c0-5.2,1.6-10.3,4.2-10.3
		c0.7,0,1.6,0.2,2.9,1.5c0.2,0.2,0.3,0.2,0.4,0.2c0.2,0,0.3-0.1,0.5-0.4l1.4-2.2c0.1-0.2,0.2-0.3,0.2-0.5c0-0.2-0.2-0.4-0.5-0.5
		c-2.1-1.1-3.5-1.3-4.7-1.3c-4.7,0-8.4,5.7-8.4,14.5c0,7.7,3.5,12.1,8.6,12.1c2.1,0,4.4-1,5.3-1.7C108.1,50.3,108.1,50.1,108.1,49.9
		z"/>
	<path d="M86.1,37.6l6.1-11.1c0.1-0.2,0.1-0.4-0.2-0.4h-3c-0.9,0-1.2,0.3-1.5,1L83,36.6c-0.3,0.6-0.5,0.9-0.8,1.1V26.5
		c0-0.2-0.1-0.4-0.3-0.4h-3.3c-0.2,0-0.3,0.2-0.3,0.4v24.7c0,0.2,0.1,0.4,0.3,0.4H82c0.2,0,0.3-0.2,0.3-0.4V38.5
		c0.2,0.1,0.3,0.3,0.4,0.5l5.8,11.9c0.3,0.6,0.8,0.8,1.4,0.8H93c0.2,0,0.3-0.2,0.2-0.4L86.1,37.6z"/>
	<path d="M57.2,48.4h-0.6c-0.8,0-1-0.3-1-0.9V26.5c0-0.3-0.1-0.4-0.3-0.4H45.2c-0.3,0-0.4,0.2-0.4,0.4v1.8c0,6.1-0.4,14-3.6,20h-1.1
		c-0.3,0-0.4,0.2-0.4,0.4c0,0,0,6.1,0,7.4c0,0.3,0.2,0.4,0.4,0.4h2.4c0.6,0,0.8-0.4,0.8-0.8v-4.2H54v4.6c0,0.2,0.2,0.4,0.4,0.4H57
		c0.3,0,0.6-0.3,0.6-0.8v-7C57.6,48.5,57.4,48.4,57.2,48.4z M51.7,48.4h-7.3C47,44,48,39,48.3,32.9c0.1-1.3,0.2-2.7,0.2-3.5h3.2
		V48.4z"/>
	<path d="M67.5,25.6c-5.5,0-7.9,6.9-7.9,14.4c0,7.7,3.4,12.2,8.5,12.2c2.5,0,4.6-1,5.8-1.7c0.2-0.1,0.3-0.3,0.2-0.5l-0.4-1.7
		c-0.1-0.2-0.2-0.3-0.4-0.3c-0.2,0-1.7,0.6-3.7,0.6c-3.9,0-5.7-3.4-5.7-7.9c0-0.6,0-1.2,0-1.2s2,0.2,3.1,0.2h7.4v-2.1
		C74.3,29.8,71.5,25.6,67.5,25.6z M66.9,36.6c-1.2,0-3,0.2-3,0.2s0-0.8,0.1-1.6c0.5-4.3,1.5-6.5,3.3-6.5c1.6,0,2.6,2.2,2.9,6.1
		c0.1,0.8,0.1,1.7,0.1,1.7H66.9z"/>
</g>
<path class="st1" d="M264.5,0H127.1v77.9h137.5l22.5-38.9L264.5,0z M259.3,70.7H135.6V7.1h123.7l19.3,31.8L259.3,70.7z"/>
<g>
	<path d="M171.6,49.8c-0.2,0-0.6,0.1-1.3,0.1c-1.5,0-2.6-0.4-3.2-1.1c-0.7-0.8-1.2-2.1-1.5-3.9c-0.4-2.5-1.3-4.4-2.6-5.6
		s-3.2-1.7-5.5-1.7h-0.1v12.2h-3.5v-26h3.5v10.7h0.3c2.2,0,4-0.5,5.3-1.5c1.3-1,2.2-2.5,2.5-4.5c0.3-1.7,0.8-3,1.4-3.8
		c0.7-0.8,1.7-1.2,3.1-1.2c0.5,0,0.9,0,1.2,0.1v3c-0.1,0-0.3,0-0.7,0c-0.4,0-0.8,0.2-1,0.5c-0.2,0.3-0.5,1-0.7,2
		c-0.3,1.7-1,3.1-2.1,4.3s-2.4,2-4.1,2.5c3.6,1.2,5.7,3.9,6.5,8c0.2,1.2,0.5,1.9,0.7,2.3c0.3,0.3,0.6,0.5,1,0.5c0.2,0,0.5,0,0.8-0.1
		V49.8z"/>
	<path d="M186.1,47.5c-1.4,1.7-3.4,2.5-6.2,2.5c-1.5,0-2.8-0.5-3.9-1.6c-1.1-1.1-1.6-2.4-1.6-4c0-1.9,0.8-3.6,2.5-4.9
		c1.7-1.3,3.8-2,6.4-2c0.7,0,1.5,0.1,2.4,0.4c0-3.1-1.4-4.6-4.1-4.6c-2.1,0-3.7,0.6-4.9,1.7l-1.4-2.8c0.6-0.5,1.4-0.9,2.6-1.3
		c1.2-0.4,2.3-0.6,3.3-0.6c2.7,0,4.6,0.6,5.9,1.8c1.3,1.2,1.9,3.2,1.9,6.1V45c0,1.7,0.5,2.8,1.5,3.3V50c-1.5,0-2.5-0.2-3.2-0.7
		C186.8,48.9,186.4,48.3,186.1,47.5z M185.8,40.3c-1.2-0.2-2-0.4-2.3-0.4c-1.7,0-3.1,0.4-4.2,1.3c-1.1,0.9-1.6,1.9-1.6,3.1
		c0,2,1.2,3,3.5,3c1.7,0,3.2-0.8,4.5-2.4V40.3z"/>
	<path d="M197.6,48.6v8.5h-3.4V30.7h3.4v1.6c1.3-1.3,2.8-1.9,4.6-1.9c2.7,0,4.8,0.8,6.3,2.5c1.5,1.7,2.3,4.2,2.3,7.4
		c0,2.9-0.8,5.3-2.3,7.1c-1.5,1.8-3.7,2.7-6.5,2.7c-0.8,0-1.6-0.1-2.5-0.4C198.4,49.3,197.9,49,197.6,48.6z M197.6,34.8v11.1
		c0.3,0.3,0.7,0.7,1.4,0.9c0.7,0.3,1.3,0.4,2,0.4c4.2,0,6.3-2.4,6.3-7.1c0-2.5-0.5-4.2-1.5-5.3c-1-1.1-2.6-1.6-4.8-1.6
		c-0.5,0-1,0.2-1.8,0.5S197.9,34.4,197.6,34.8z"/>
	<path d="M227.4,33.5H222v16.1h-3.4V33.5h-5.5v-2.8h14.3V33.5z"/>
	<path d="M234.2,37.6c1-0.1,2-0.2,3.2-0.2c2.4,0,4.3,0.5,5.6,1.6c1.3,1.1,1.9,2.6,1.9,4.7c0,1-0.3,2-0.9,3c-0.6,1-1.4,1.7-2.5,2.2
		c-1.1,0.5-2.5,0.8-4.1,0.8h-6.5v-19h3.3V37.6z M234.2,46.9c0.8,0.1,1.9,0.1,3.2,0.1c1.3,0,2.3-0.3,3-0.9c0.8-0.6,1.1-1.5,1.1-2.6
		c0-1.2-0.4-2.1-1.2-2.7s-1.8-0.9-3.1-0.9c-0.7,0-1.7,0.1-3,0.2V46.9z M251,49.7h-3.3v-19h3.3V49.7z"/>
</g>
</svg>
