<?xml version="1.0" encoding="utf-8"?>
<!-- Generator: Adobe Illustrator 21.0.2, SVG Export Plug-In . SVG Version: 6.00 Build 0)  -->
<svg version="1.1" id="Слой_1" xmlns="http://www.w3.org/2000/svg" xmlns:xlink="http://www.w3.org/1999/xlink" x="0px" y="0px"
	 viewBox="0 0 30 30" style="enable-background:new 0 0 30 30;" xml:space="preserve">
<style type="text/css">
	.st0{fill:#ED2224;}
	.st1{fill:#282828;}
	.st2{fill:#FFFFFF;}
</style>
<g>
	<g>
		<path class="st0" d="M26.3,15.7c-0.3-1-1.1-1.8-2.1-2.1c-1.8-0.5-9.1-0.5-9.1-0.5s-7.3,0-9.1,0.5c-1,0.3-1.8,1.1-2.1,2.1
			c-0.5,1.8-0.5,5.6-0.5,5.6s0,3.8,0.5,5.6C4.2,27.9,5,28.7,6,29c1.8,0.5,9.1,0.5,9.1,0.5s7.3,0,9.1-0.5c1-0.3,1.8-1.1,2.1-2.1
			c0.5-1.8,0.5-5.6,0.5-5.6S26.8,17.5,26.3,15.7z"/>
	</g>
	<path class="st1" d="M13.1,11.1c-0.4-0.2-0.6-0.6-0.8-1.1c-0.2-0.5-0.2-1.2-0.2-2V6.9c0-0.9,0.1-1.5,0.3-2c0.2-0.5,0.4-0.9,0.8-1.1
		c0.4-0.2,0.8-0.4,1.4-0.4c0.6,0,1.1,0.1,1.4,0.4c0.4,0.2,0.6,0.6,0.8,1.1c0.2,0.5,0.2,1.2,0.2,2V8c0,0.8-0.1,1.5-0.2,2
		c-0.2,0.5-0.4,0.9-0.8,1.1c-0.4,0.2-0.8,0.4-1.4,0.4C14,11.5,13.5,11.4,13.1,11.1z M15.1,9.9c0.1-0.3,0.1-0.7,0.1-1.3V6.2
		c0-0.6,0-1-0.1-1.2c-0.1-0.3-0.3-0.4-0.5-0.4c-0.2,0-0.4,0.1-0.5,0.4c-0.1,0.3-0.1,0.7-0.1,1.2v2.5c0,0.6,0,1,0.1,1.3
		c0.1,0.3,0.3,0.4,0.5,0.4C14.9,10.3,15,10.2,15.1,9.9z"/>
	<path class="st2" d="M22.2,22.9v0.4c0,0.5,0,0.8,0,1c0,0.2,0.1,0.4,0.2,0.5c0.1,0.1,0.2,0.2,0.4,0.2c0.2,0,0.4-0.1,0.5-0.3
		c0.1-0.2,0.1-0.5,0.1-0.9l1.4,0.1c0,0.1,0,0.1,0,0.3c0,0.7-0.2,1.2-0.5,1.5c-0.4,0.3-0.9,0.5-1.5,0.5c-0.8,0-1.4-0.2-1.7-0.7
		c-0.3-0.5-0.5-1.3-0.5-2.3v-1.3c0-1.1,0.2-1.9,0.5-2.4c0.3-0.5,0.9-0.7,1.7-0.7c0.6,0,1,0.1,1.3,0.3c0.3,0.2,0.5,0.5,0.6,0.9
		c0.1,0.4,0.2,1,0.2,1.8v1.2H22.2z M22.4,19.9c-0.1,0.1-0.1,0.3-0.2,0.5c0,0.2,0,0.6,0,1V22h1.2v-0.5c0-0.5,0-0.8,0-1
		c0-0.2-0.1-0.4-0.2-0.5c-0.1-0.1-0.2-0.1-0.4-0.1C22.6,19.8,22.5,19.8,22.4,19.9z"/>
	<path class="st1" d="M8.8,7.9l-2-7.3h1.8l0.7,3.3C9.4,4.7,9.6,5.4,9.6,6h0.1c0.1-0.4,0.2-1.1,0.4-2.1l0.7-3.3h1.8l-2,7.3v3.5H8.8
		V7.9z"/>
	<path class="st1" d="M22.8,3.5v7.9h-1.4l-0.2-1h0c-0.4,0.7-0.9,1.1-1.7,1.1c-0.5,0-0.9-0.2-1.2-0.5c-0.2-0.3-0.4-0.9-0.4-1.6V3.5
		h1.8v5.8c0,0.4,0,0.6,0.1,0.8c0.1,0.2,0.2,0.2,0.4,0.2c0.2,0,0.3,0,0.4-0.1C20.9,10,21,9.9,21,9.7V3.5H22.8z"/>
	<path class="st2" d="M14.4,18.8V26h-1.3L13,25.1h0c-0.3,0.7-0.9,1-1.5,1c-0.5,0-0.8-0.2-1.1-0.5c-0.2-0.3-0.3-0.8-0.3-1.5v-5.4h1.6
		v5.3c0,0.3,0,0.5,0.1,0.7c0.1,0.1,0.2,0.2,0.4,0.2c0.1,0,0.3,0,0.4-0.1c0.1-0.1,0.2-0.2,0.3-0.3v-5.7H14.4z"/>
	<path class="st2" d="M10.5,17.5H8.9V26H7.3v-8.5H5.7v-1.3h4.8V17.5z"/>
	<path class="st2" d="M19.7,19.9c-0.1-0.5-0.3-0.8-0.5-1c-0.2-0.2-0.5-0.3-0.9-0.3c-0.3,0-0.6,0.1-0.8,0.3c-0.3,0.2-0.5,0.4-0.6,0.7
		h0l0-3.8h-1.6V26h1.3l0.2-0.7h0c0.1,0.2,0.3,0.4,0.6,0.6c0.2,0.1,0.5,0.2,0.8,0.2c0.5,0,0.9-0.3,1.2-0.8c0.3-0.5,0.4-1.3,0.4-2.4
		v-1.1C19.9,21,19.8,20.4,19.7,19.9z M18.3,22.9c0,0.5,0,0.9-0.1,1.2c0,0.3-0.1,0.5-0.2,0.6c-0.1,0.1-0.2,0.2-0.4,0.2
		c-0.1,0-0.3,0-0.4-0.1c-0.1-0.1-0.2-0.2-0.3-0.3v-4.1c0.1-0.2,0.1-0.4,0.3-0.5c0.1-0.1,0.3-0.2,0.4-0.2c0.2,0,0.3,0.1,0.4,0.2
		c0.1,0.1,0.2,0.3,0.2,0.6c0,0.3,0.1,0.7,0.1,1.3V22.9z"/>
</g>
</svg>
