{
	"asset":{
		"version":"2.0",
		"generator":"Created using the official Cinema 4D glTF Exporter 1.000x284978"
	},
	"scenes":[{
		"nodes":[0]
	}],
	"textures":[{
		"sampler":0,
		"source":0
	}],
	"buffers":[{
		"uri":"data:application/octet-stream;base64,",
		"byteLength":23732
	},
	{
		"uri":"data:application/octet-stream;base64,",
		"byteLength":23732
	},
	{
		"uri":"data:application/octet-stream;base64,",
		"byteLength":33576
	},
	{
		"uri":"data:application/octet-stream;base64,",
		"byteLength":33576
	},
	{
		"uri":"data:application/octet-stream;base64,",
		"byteLength":744
	},
	{
		"uri":"data:application/octet-stream;base64,",
		"byteLength":744
	},
	{
		"uri":"data:application/octet-stream;base64,",
		"byteLength":12688
	},
	{
		"uri":"data:application/octet-stream;base64,",
		"byteLength":832836
	},
	{
		"uri":"data:application/octet-stream;base64,",
		"byteLength":100276
	},
	{
		"uri":"data:application/octet-stream;base64,",
		"byteLength":173900
	},
	{
		"uri":"data:application/octet-stream;base64,",
		"byteLength":5020
	},
	{
		"uri":"data:application/octet-stream;base64,",
		"byteLength":9704
	},
	{
		"uri":"data:application/octet-stream;base64,",
		"byteLength":5020
	},
	{
		"uri":"data:application/octet-stream;base64,",
		"byteLength":9704
	}],
	"meshes":[{
		"name":"Red_light_2",
		"primitives":[{
			"attributes":{
				"POSITION":1,
				"TEXCOORD_0":2
			},
			"indices":0,
			"material":0
		}]
	},
	{
		"name":"Red_light_1",
		"primitives":[{
			"attributes":{
				"POSITION":4,
				"TEXCOORD_0":5
			},
			"indices":3,
			"material":0
		}]
	},
	{
		"name":"ST_metal_cover.1",
		"primitives":[{
			"attributes":{
				"POSITION":7,
				"TEXCOORD_0":8
			},
			"indices":6,
			"material":1
		}]
	},
	{
		"name":"ST_metal_cover",
		"primitives":[{
			"attributes":{
				"POSITION":10,
				"TEXCOORD_0":11
			},
			"indices":9,
			"material":1
		}]
	},
	{
		"name":"Arrow.1",
		"primitives":[{
			"attributes":{
				"POSITION":13,
				"TEXCOORD_0":14
			},
			"indices":12,
			"material":2
		}]
	},
	{
		"name":"Arrow",
		"primitives":[{
			"attributes":{
				"POSITION":16,
				"TEXCOORD_0":17
			},
			"indices":15,
			"material":2
		}]
	},
	{
		"name":"Default-Glass_green",
		"primitives":[{
			"attributes":{
				"POSITION":19,
				"TEXCOORD_0":20
			},
			"indices":18,
			"material":3
		}]
	},
	{
		"name":"Default-Brush_Metall",
		"primitives":[{
			"attributes":{
				"POSITION":22,
				"TEXCOORD_0":23
			},
			"indices":21,
			"material":1
		}]
	},
	{
		"name":"Default-Stone",
		"primitives":[{
			"attributes":{
				"POSITION":25,
				"TEXCOORD_0":26
			},
			"indices":24,
			"material":4
		}]
	},
	{
		"name":"Default-White_light",
		"primitives":[{
			"attributes":{
				"POSITION":28,
				"TEXCOORD_0":29
			},
			"indices":27,
			"material":2
		}]
	},
	{
		"name":"Glass_door_left-Glass_green",
		"primitives":[{
			"attributes":{
				"POSITION":33,
				"TEXCOORD_0":34
			},
			"indices":32,
			"material":3
		}]
	},
	{
		"name":"Glass_door_right-Glass_green",
		"primitives":[{
			"attributes":{
				"POSITION":38,
				"TEXCOORD_0":39
			},
			"indices":37,
			"material":3
		}]
	}],
	"nodes":[{
		"name":"Null.1",
		"translation":[-0.013664244674146176,
		3.646618366241455,
		-0.07142680138349533],
		"rotation":[0.0,
		0.0,
		0.0,
		-1.0],
		"scale":[1.0,
		1.0,
		1.0],
		"children":[1,
		2,
		3,
		4,
		5,
		6,
		7,
		12,
		15]
	},
	{
		"name":"Red_light_2",
		"translation":[21.48139190673828,
		15.697433471679688,
		-0.182262122631073],
		"rotation":[1.2246468525851679e-16,
		-7.498798786105971e-33,
		-1.0,
		6.123234262925839e-17],
		"scale":[1.0,
		1.0,
		1.0],
		"mesh":0
	},
	{
		"name":"Red_light_1",
		"translation":[-21.511953353881837,
		15.697433471679688,
		-0.182262122631073],
		"rotation":[1.0,
		-6.123234262925839e-17,
		6.123234262925839e-17,
		6.123234262925839e-17],
		"scale":[1.0,
		1.0,
		1.0],
		"mesh":1
	},
	{
		"name":"ST_metal_cover.1",
		"translation":[24.606706619262697,
		-3.893153429031372,
		-37.563873291015628],
		"rotation":[0.0,
		-1.0,
		0.0,
		-6.123234262925839e-17],
		"scale":[1.0,
		1.0,
		1.0],
		"mesh":2
	},
	{
		"name":"ST_metal_cover",
		"translation":[-24.60995101928711,
		-3.893153429031372,
		37.57476043701172],
		"rotation":[0.0,
		0.0,
		0.0,
		-1.0],
		"scale":[1.0,
		1.0,
		1.0],
		"mesh":3
	},
	{
		"name":"Arrow.1",
		"translation":[-24.684139251708986,
		9.70324993133545,
		-38.39894485473633],
		"rotation":[0.0,
		0.0,
		0.0,
		-1.0],
		"scale":[1.0,
		1.0,
		1.0],
		"mesh":4
	},
	{
		"name":"Arrow",
		"translation":[24.712778091430665,
		9.70324993133545,
		38.67729187011719],
		"rotation":[0.0,
		0.0,
		0.0,
		-1.0],
		"scale":[1.0,
		1.0,
		1.0],
		"mesh":5
	},
	{
		"name":"Default",
		"translation":[-0.0027027702890336515,
		-3.646618366241455,
		0.07267183065414429],
		"rotation":[0.0,
		0.0,
		0.0,
		-1.0],
		"scale":[1.0,
		1.0,
		1.0],
		"children":[8,
		9,
		10,
		11]
	},
	{
		"name":"Default-Glass_green",
		"translation":[0.0,
		0.0,
		0.0],
		"rotation":[0.0,
		0.0,
		0.0,
		-1.0],
		"scale":[1.0,
		1.0,
		1.0],
		"mesh":6
	},
	{
		"name":"Default-Brush_Metall",
		"translation":[0.0,
		0.0,
		0.0],
		"rotation":[0.0,
		0.0,
		0.0,
		-1.0],
		"scale":[1.0,
		1.0,
		1.0],
		"mesh":7
	},
	{
		"name":"Default-Stone",
		"translation":[0.0,
		0.0,
		0.0],
		"rotation":[0.0,
		0.0,
		0.0,
		-1.0],
		"scale":[1.0,
		1.0,
		1.0],
		"mesh":8
	},
	{
		"name":"Default-White_light",
		"translation":[0.0,
		0.0,
		0.0],
		"rotation":[0.0,
		0.0,
		0.0,
		-1.0],
		"scale":[1.0,
		1.0,
		1.0],
		"mesh":9
	},
	{
		"name":"Door_left",
		"translation":[21.472190856933595,
		0.9006537199020386,
		0.20927183330059052],
		"rotation":[0.0,
		0.0,
		0.0,
		-1.0],
		"scale":[1.0,
		1.0,
		1.0],
		"children":[13]
	},
	{
		"name":"Glass_door_left",
		"translation":[0.0,
		0.0,
		0.0],
		"rotation":[0.0,
		0.0,
		0.0,
		-1.0],
		"scale":[1.0,
		1.0,
		1.0],
		"children":[14]
	},
	{
		"name":"Glass_door_left-Glass_green",
		"translation":[0.0,
		0.0,
		0.0],
		"rotation":[0.0,
		0.0,
		0.0,
		-1.0],
		"scale":[1.0,
		1.0,
		1.0],
		"mesh":10
	},
	{
		"name":"Door_right",
		"translation":[-21.48147964477539,
		0.9006537199020386,
		0.20927183330059052],
		"rotation":[0.0,
		0.0,
		0.0,
		-1.0],
		"scale":[1.0,
		1.0,
		1.0],
		"children":[16]
	},
	{
		"name":"Glass_door_right",
		"translation":[0.0,
		0.0,
		0.0],
		"rotation":[0.0,
		0.0,
		0.0,
		-1.0],
		"scale":[1.0,
		1.0,
		1.0],
		"children":[17]
	},
	{
		"name":"Glass_door_right-Glass_green",
		"translation":[0.0,
		0.0,
		0.0],
		"rotation":[0.0,
		0.0,
		0.0,
		-1.0],
		"scale":[1.0,
		1.0,
		1.0],
		"mesh":11
	}],
	"accessors":[{
		"bufferView":0,
		"type":"SCALAR",
		"min":[0],
		"componentType":5123,
		"count":2586,
		"byteOffset":0,
		"max":[927]
	},
	{
		"bufferView":1,
		"type":"VEC3",
		"min":[-1.4101697206497193,
		-1.2555714219784475e-14,
		-1.7478159666061402],
		"componentType":5126,
		"count":928,
		"byteOffset":0,
		"max":[1.747605800628662,
		0.3972308933734894,
		1.7478159666061402]
	},
	{
		"bufferView":1,
		"type":"VEC2",
		"min":[-5.133148409369043e-14,
		-1.2439502146454132e-14],
		"componentType":5126,
		"count":928,
		"byteOffset":12,
		"max":[1.0,
		1.0]
	},
	{
		"bufferView":2,
		"type":"SCALAR",
		"min":[0],
		"componentType":5123,
		"count":2586,
		"byteOffset":0,
		"max":[927]
	},
	{
		"bufferView":3,
		"type":"VEC3",
		"min":[-1.4101697206497193,
		-1.2616497304079443e-14,
		-1.7478159666061402],
		"componentType":5126,
		"count":928,
		"byteOffset":0,
		"max":[1.747605800628662,
		0.3972308933734894,
		1.7478159666061402]
	},
	{
		"bufferView":3,
		"type":"VEC2",
		"min":[-5.133148409369043e-14,
		-1.2439502146454132e-14],
		"componentType":5126,
		"count":928,
		"byteOffset":12,
		"max":[1.0,
		1.0]
	},
	{
		"bufferView":4,
		"type":"SCALAR",
		"min":[0],
		"componentType":5123,
		"count":6288,
		"byteOffset":0,
		"max":[1049]
	},
	{
		"bufferView":5,
		"type":"VEC3",
		"min":[-2.163628101348877,
		-19.684999465942384,
		-1.078142523765564],
		"componentType":5126,
		"count":1050,
		"byteOffset":0,
		"max":[2.163628101348877,
		19.684999465942384,
		1.078142523765564]
	},
	{
		"bufferView":5,
		"type":"VEC2",
		"min":[0.0,
		0.0],
		"componentType":5126,
		"count":1050,
		"byteOffset":12,
		"max":[1.0,
		1.0]
	},
	{
		"bufferView":6,
		"type":"SCALAR",
		"min":[0],
		"componentType":5123,
		"count":6288,
		"byteOffset":0,
		"max":[1049]
	},
	{
		"bufferView":7,
		"type":"VEC3",
		"min":[-2.163628101348877,
		-19.684999465942384,
		-1.078142523765564],
		"componentType":5126,
		"count":1050,
		"byteOffset":0,
		"max":[2.163628101348877,
		19.684999465942384,
		1.078142523765564]
	},
	{
		"bufferView":7,
		"type":"VEC2",
		"min":[0.0,
		0.0],
		"componentType":5126,
		"count":1050,
		"byteOffset":12,
		"max":[1.0,
		1.0]
	},
	{
		"bufferView":8,
		"type":"SCALAR",
		"min":[0],
		"componentType":5123,
		"count":72,
		"byteOffset":0,
		"max":[29]
	},
	{
		"bufferView":9,
		"type":"VEC3",
		"min":[-0.45673489570617678,
		-1.0279873609542847,
		-0.2780379354953766],
		"componentType":5126,
		"count":30,
		"byteOffset":0,
		"max":[0.6043955683708191,
		0.5432294607162476,
		-0.17803794145584107]
	},
	{
		"bufferView":9,
		"type":"VEC2",
		"min":[0.0,
		0.0],
		"componentType":5126,
		"count":30,
		"byteOffset":12,
		"max":[1.0,
		1.0]
	},
	{
		"bufferView":10,
		"type":"SCALAR",
		"min":[0],
		"componentType":5123,
		"count":72,
		"byteOffset":0,
		"max":[29]
	},
	{
		"bufferView":11,
		"type":"VEC3",
		"min":[-0.6043981909751892,
		-1.0279858112335206,
		-0.10000000149011612],
		"componentType":5126,
		"count":30,
		"byteOffset":0,
		"max":[0.45673567056655886,
		0.543229341506958,
		0.0]
	},
	{
		"bufferView":11,
		"type":"VEC2",
		"min":[0.0,
		0.0],
		"componentType":5126,
		"count":30,
		"byteOffset":12,
		"max":[1.0,
		1.0]
	},
	{
		"bufferView":12,
		"type":"SCALAR",
		"min":[0],
		"componentType":5123,
		"count":1704,
		"byteOffset":0,
		"max":[463]
	},
	{
		"bufferView":13,
		"type":"VEC3",
		"min":[-24.775096893310548,
		-12.842927932739258,
		-37.65864944458008],
		"componentType":5126,
		"count":464,
		"byteOffset":0,
		"max":[24.765615463256837,
		16.68467140197754,
		37.14445114135742]
	},
	{
		"bufferView":13,
		"type":"VEC2",
		"min":[0.006391506176441908,
		0.13578474521636964],
		"componentType":5126,
		"count":464,
		"byteOffset":12,
		"max":[0.9908030033111572,
		0.8642152547836304]
	},
	{
		"bufferView":14,
		"type":"SCALAR",
		"min":[0],
		"componentType":5123,
		"count":136128,
		"byteOffset":0,
		"max":[28028]
	},
	{
		"bufferView":15,
		"type":"VEC3",
		"min":[-27.170150756835939,
		-19.933828353881837,
		-39.35955047607422],
		"componentType":5126,
		"count":28029,
		"byteOffset":0,
		"max":[27.16575050354004,
		19.5529727935791,
		39.35934829711914]
	},
	{
		"bufferView":15,
		"type":"VEC2",
		"min":[0.0015598296886309982,
		0.12928950786590577],
		"componentType":5126,
		"count":28029,
		"byteOffset":12,
		"max":[0.9982936382293701,
		0.8707104921340942]
	},
	{
		"bufferView":16,
		"type":"SCALAR",
		"min":[0],
		"componentType":5123,
		"count":16968,
		"byteOffset":0,
		"max":[3316]
	},
	{
		"bufferView":17,
		"type":"VEC3",
		"min":[-27.163650512695314,
		11.95057201385498,
		-39.35945129394531],
		"componentType":5126,
		"count":3317,
		"byteOffset":0,
		"max":[27.170150756835939,
		19.90487289428711,
		39.35955047607422]
	},
	{
		"bufferView":17,
		"type":"VEC2",
		"min":[0.004680616315454245,
		0.3878696858882904],
		"componentType":5126,
		"count":3317,
		"byteOffset":12,
		"max":[2.98689603805542,
		2.6121299266815187]
	},
	{
		"bufferView":18,
		"type":"SCALAR",
		"min":[0],
		"componentType":5123,
		"count":19410,
		"byteOffset":0,
		"max":[6753]
	},
	{
		"bufferView":19,
		"type":"VEC3",
		"min":[-26.385150909423829,
		19.650428771972658,
		-38.360748291015628],
		"componentType":5126,
		"count":6754,
		"byteOffset":0,
		"max":[26.44124984741211,
		19.933927536010743,
		38.39125061035156]
	},
	{
		"bufferView":19,
		"type":"VEC2",
		"min":[0.0043905205093324188,
		0.13304272294044496],
		"componentType":5126,
		"count":6754,
		"byteOffset":12,
		"max":[0.9942236542701721,
		0.8669571876525879]
	},
	{
		"bufferView":20,
		"type":"SCALAR",
		"min":[0.0],
		"componentType":5126,
		"count":251,
		"byteOffset":0,
		"max":[8.333333015441895]
	},
	{
		"bufferView":20,
		"type":"VEC4",
		"min":[0.0,
		-0.7071067690849304,
		-7.4042447728572828e-9,
		-1.0],
		"componentType":5126,
		"count":251,
		"byteOffset":1004,
		"max":[8.296453524181402e-10,
		0.0,
		0.0,
		1.0]
	},
	{
		"bufferView":21,
		"type":"SCALAR",
		"min":[0],
		"componentType":5123,
		"count":1302,
		"byteOffset":0,
		"max":[354]
	},
	{
		"bufferView":22,
		"type":"VEC3",
		"min":[-20.373443603515626,
		-11.810999870300293,
		-0.1968500018119812],
		"componentType":5126,
		"count":355,
		"byteOffset":0,
		"max":[1.1531568765640259,
		11.810999870300293,
		0.1968500018119812]
	},
	{
		"bufferView":22,
		"type":"VEC2",
		"min":[0.1476757675409317,
		0.27696526050567629],
		"componentType":5126,
		"count":355,
		"byteOffset":12,
		"max":[0.893615186214447,
		0.7230346202850342]
	},
	{
		"bufferView":23,
		"type":"SCALAR",
		"min":[0.0],
		"componentType":5126,
		"count":251,
		"byteOffset":0,
		"max":[8.333333015441895]
	},
	{
		"bufferView":23,
		"type":"VEC4",
		"min":[0.0,
		-0.7071067690849304,
		0.0,
		-1.0],
		"componentType":5126,
		"count":251,
		"byteOffset":1004,
		"max":[0.0,
		0.0,
		0.0,
		-0.7071067690849304]
	},
	{
		"bufferView":24,
		"type":"SCALAR",
		"min":[0],
		"componentType":5123,
		"count":1302,
		"byteOffset":0,
		"max":[354]
	},
	{
		"bufferView":25,
		"type":"VEC3",
		"min":[-1.196673035621643,
		-11.810999870300293,
		-0.1968500018119812],
		"componentType":5126,
		"count":355,
		"byteOffset":0,
		"max":[20.5947265625,
		11.810999870300293,
		0.1968500018119812]
	},
	{
		"bufferView":25,
		"type":"VEC2",
		"min":[0.1476757675409317,
		0.27696526050567629],
		"componentType":5126,
		"count":355,
		"byteOffset":12,
		"max":[0.9829621315002441,
		0.7230346202850342]
	}],
	"bufferViews":[{
		"buffer":0,
		"byteOffset":0,
		"byteLength":5172,
		"target":34963
	},
	{
		"buffer":0,
		"byteOffset":5172,
		"byteLength":18560,
		"target":34962,
		"byteStride":20
	},
	{
		"buffer":1,
		"byteOffset":0,
		"byteLength":5172,
		"target":34963
	},
	{
		"buffer":1,
		"byteOffset":5172,
		"byteLength":18560,
		"target":34962,
		"byteStride":20
	},
	{
		"buffer":2,
		"byteOffset":0,
		"byteLength":12576,
		"target":34963
	},
	{
		"buffer":2,
		"byteOffset":12576,
		"byteLength":21000,
		"target":34962,
		"byteStride":20
	},
	{
		"buffer":3,
		"byteOffset":0,
		"byteLength":12576,
		"target":34963
	},
	{
		"buffer":3,
		"byteOffset":12576,
		"byteLength":21000,
		"target":34962,
		"byteStride":20
	},
	{
		"buffer":4,
		"byteOffset":0,
		"byteLength":144,
		"target":34963
	},
	{
		"buffer":4,
		"byteOffset":144,
		"byteLength":600,
		"target":34962,
		"byteStride":20
	},
	{
		"buffer":5,
		"byteOffset":0,
		"byteLength":144,
		"target":34963
	},
	{
		"buffer":5,
		"byteOffset":144,
		"byteLength":600,
		"target":34962,
		"byteStride":20
	},
	{
		"buffer":6,
		"byteOffset":0,
		"byteLength":3408,
		"target":34963
	},
	{
		"buffer":6,
		"byteOffset":3408,
		"byteLength":9280,
		"target":34962,
		"byteStride":20
	},
	{
		"buffer":7,
		"byteOffset":0,
		"byteLength":272256,
		"target":34963
	},
	{
		"buffer":7,
		"byteOffset":272256,
		"byteLength":560580,
		"target":34962,
		"byteStride":20
	},
	{
		"buffer":8,
		"byteOffset":0,
		"byteLength":33936,
		"target":34963
	},
	{
		"buffer":8,
		"byteOffset":33936,
		"byteLength":66340,
		"target":34962,
		"byteStride":20
	},
	{
		"buffer":9,
		"byteOffset":0,
		"byteLength":38820,
		"target":34963
	},
	{
		"buffer":9,
		"byteOffset":38820,
		"byteLength":135080,
		"target":34962,
		"byteStride":20
	},
	{
		"buffer":10,
		"byteOffset":0,
		"byteLength":5020
	},
	{
		"buffer":11,
		"byteOffset":0,
		"byteLength":2604,
		"target":34963
	},
	{
		"buffer":11,
		"byteOffset":2604,
		"byteLength":7100,
		"target":34962,
		"byteStride":20
	},
	{
		"buffer":12,
		"byteOffset":0,
		"byteLength":5020
	},
	{
		"buffer":13,
		"byteOffset":0,
		"byteLength":2604,
		"target":34963
	},
	{
		"buffer":13,
		"byteOffset":2604,
		"byteLength":7100,
		"target":34962,
		"byteStride":20
	}],
	"images":[{
		"uri":"data:image/jpeg;base64,"
	}],
	"samplers":[{
		"magFilter":9729,
		"minFilter":9729,
		"wrapS":10497,
		"wrapT":10497
	}],
	"materials":[{
		"pbrMetallicRoughness":{
			"baseColorFactor":[1.0,
			1.0,
			1.0,
			1.0],
			"metallicFactor":1.0,
			"roughnessFactor":1.0
		},
		"emissiveFactor":[1.0,
		0.13,
		0.13],
		"alphaMode":"OPAQUE",
		"doubleSided":true,
		"name":"Red_light"
	},
	{
		"pbrMetallicRoughness":{
			"baseColorFactor":[1.0,
			1.0,
			1.0,
			1.0],
			"metallicFactor":1.0,
			"roughnessFactor":0.12
		},
		"emissiveFactor":[0.0,
		0.0,
		0.0],
		"alphaMode":"OPAQUE",
		"doubleSided":true,
		"name":"Brush_Metall"
	},
	{
		"pbrMetallicRoughness":{
			"baseColorFactor":[0.88,
			0.88,
			0.88,
			1.0],
			"metallicFactor":1.0,
			"roughnessFactor":1.0
		},
		"emissiveFactor":[1.0,
		1.0,
		1.0],
		"alphaMode":"OPAQUE",
		"doubleSided":true,
		"name":"White_light"
	},
	{
		"pbrMetallicRoughness":{
			"baseColorFactor":[0.8460000157356262,
			0.8460000157356262,
			0.8460000157356262,
			0.30000001192092898],
			"metallicFactor":1.0,
			"roughnessFactor":0.0
		},
		"emissiveFactor":[0.0,
		0.0,
		0.0],
		"alphaMode":"BLEND",
		"doubleSided":true,
		"name":"Glass_green"
	},
	{
		"pbrMetallicRoughness":{
			"baseColorTexture":{
				"index":0
			},
			"baseColorFactor":[0.13,
			0.13,
			0.13,
			1.0],
			"metallicFactor":1.0,
			"roughnessFactor":0.1
		},
		"emissiveFactor":[0.0,
		0.0,
		0.0],
		"alphaMode":"OPAQUE",
		"doubleSided":true,
		"name":"Stone"
	}],
	"animations":[{
		"samplers":[{
			"input":30,
			"interpolation":"LINEAR",
			"output":31
		},
		{
			"input":35,
			"interpolation":"LINEAR",
			"output":36
		}],
		"channels":[{
			"sampler":0,
			"target":{
				"node":12,
				"path":"rotation"
			}
		},
		{
			"sampler":1,
			"target":{
				"node":15,
				"path":"rotation"
			}
		}]
	}]
}